# xmcd
#
# Track frame offsets: 
#        150
#        22543
#        42787
#        64776
#        82431
#        101777
#        125670
#        131240
#        152762
#        174952
#
# Disc length: 2481 seconds
#
# Revision: 0
# Processed by: cddbd v1.5.2PL0 Copyright (c) Steve Scherf et al.
# Submitted via: ExactAudioCopy v0.99pb5
#
DISCID=8209af0a
DTITLE=AC&M - AC&M - Dem nay co mua roi
DYEAR=2006
DGENRE=Pop
TTITLE0=Dem nay co mua roi
TTITLE1=Dem thanh thi
TTITLE2=Nguoi di xa mai
TTITLE3=Ngo dau tinh da quen min
TTITLE4=Ben em
TTITLE5=Mau mat nhung
TTITLE6=Tam con ngong
TTITLE7=Thanh pho suong
TTITLE8=Mat troi cua toi
TTITLE9=Chuyen chang co don
EXTD=
EXTT0=
EXTT1=
EXTT2=
EXTT3=
EXTT4=
EXTT5=
EXTT6=
EXTT7=
EXTT8=
EXTT9=
PLAYORDER=
